<?xml version="1.0" encoding="utf-8"?>
<!-- Generator: Adobe Illustrator 24.3.0, SVG Export Plug-In . SVG Version: 6.00 Build 0)  -->
<svg version="1.1" id="Layer_1" xmlns="http://www.w3.org/2000/svg" xmlns:xlink="http://www.w3.org/1999/xlink" x="0px" y="0px"
	 viewBox="0 0 306.4 95.8" style="enable-background:new 0 0 306.4 95.8;" xml:space="preserve">
<style type="text/css">
	.st0{fill:#0A2463;}
	.st1{fill:#2176FF;}
</style>
<g>
	<g>
		<path class="st0" d="M38.9,32.8l-7.7,26.6H24l-4.9-18.6l-4.9,18.6H6.9l-7.8-26.6h6.8l4.7,20.3l5.1-20.3h7.1l5,20.2l4.7-20.2
			C32.5,32.8,38.9,32.8,38.9,32.8z"/>
		<path class="st0" d="M67.1,48.1H47.7c0.2,1.9,0.8,3.4,2,4.5c1.2,1.1,2.6,1.6,4.4,1.6c2.5,0,4.3-1.1,5.3-3.2h7.2
			c-0.8,2.6-2.2,4.7-4.4,6.3c-2.2,1.6-4.8,2.5-8,2.5c-2.6,0-4.9-0.6-6.9-1.7c-2-1.1-3.6-2.7-4.8-4.8c-1.1-2.1-1.7-4.5-1.7-7.2
			c0-2.8,0.6-5.2,1.7-7.2c1.1-2.1,2.7-3.7,4.7-4.8c2-1.1,4.3-1.7,7-1.7c2.5,0,4.8,0.5,6.8,1.6c2,1.1,3.6,2.6,4.7,4.6
			s1.7,4.3,1.7,6.9C67.3,46.5,67.2,47.4,67.1,48.1z M60.3,43.6c0-1.7-0.7-3.1-1.9-4.2c-1.2-1-2.7-1.6-4.5-1.6
			c-1.7,0-3.1,0.5-4.2,1.5c-1.1,1-1.8,2.4-2.1,4.2h12.7V43.6z"/>
		<path class="st0" d="M72.1,38.9c1.1-2.1,2.5-3.7,4.4-4.8c1.8-1.1,3.8-1.7,6.1-1.7c2,0,3.7,0.4,5.2,1.2s2.7,1.8,3.6,3v-3.8h6.8
			v26.6h-6.8v-3.9c-0.9,1.2-2.1,2.3-3.6,3.1c-1.5,0.8-3.3,1.2-5.3,1.2c-2.2,0-4.3-0.6-6.1-1.7c-1.8-1.2-3.3-2.8-4.4-4.9
			c-1.1-2.1-1.6-4.5-1.6-7.2C70.5,43.3,71,41,72.1,38.9z M90.4,41.9c-0.6-1.2-1.5-2.1-2.6-2.7c-1.1-0.6-2.3-0.9-3.5-0.9
			s-2.4,0.3-3.5,0.9c-1.1,0.6-1.9,1.5-2.6,2.7s-1,2.6-1,4.2c0,1.6,0.3,3,1,4.2c0.7,1.2,1.5,2.1,2.6,2.8c1.1,0.6,2.2,1,3.4,1
			c1.2,0,2.4-0.3,3.5-0.9c1.1-0.6,2-1.5,2.6-2.7s1-2.6,1-4.2S91.1,43.1,90.4,41.9z"/>
		<path class="st0" d="M115.8,53.2l6.7-20.4h7.2l-9.8,26.6h-8.2l-9.8-26.6h7.2L115.8,53.2z"/>
		<path class="st0" d="M158,48.1h-19.4c0.2,1.9,0.8,3.4,2,4.5c1.2,1.1,2.6,1.6,4.4,1.6c2.5,0,4.3-1.1,5.3-3.2h7.2
			c-0.8,2.6-2.2,4.7-4.4,6.3c-2.2,1.6-4.8,2.5-8,2.5c-2.6,0-4.9-0.6-6.9-1.7c-2-1.1-3.6-2.7-4.8-4.8c-1.1-2.1-1.7-4.5-1.7-7.2
			c0-2.8,0.6-5.2,1.7-7.2c1.1-2.1,2.7-3.7,4.7-4.8c2-1.1,4.3-1.7,7-1.7c2.5,0,4.8,0.5,6.8,1.6c2,1.1,3.6,2.6,4.7,4.6
			s1.7,4.3,1.7,6.9C158.2,46.5,158.2,47.4,158,48.1z M151.3,43.6c0-1.7-0.7-3.1-1.9-4.2c-1.2-1-2.7-1.6-4.5-1.6
			c-1.7,0-3.1,0.5-4.2,1.5c-1.1,1-1.8,2.4-2.1,4.2h12.7V43.6z"/>
		<path class="st0" d="M173.2,33.6c1.4-0.8,3-1.2,4.8-1.2v7.1h-1.8c-2.1,0-3.7,0.5-4.8,1.5s-1.6,2.7-1.6,5.2v13.2h-6.7V32.8h6.7v4.1
			C170.7,35.6,171.8,34.4,173.2,33.6z"/>
	</g>
	<g>
		<path class="st1" d="M203.5,59.6v3.8h-24.1v-3.8H203.5z"/>
		<path class="st1" d="M209.4,38.7c1-1.9,2.5-3.4,4.3-4.5c1.8-1.1,3.9-1.6,6.3-1.6c3.1,0,5.6,0.7,7.6,2.2s3.3,3.5,3.9,6.2h-4.4
			c-0.4-1.5-1.2-2.7-2.5-3.6c-1.2-0.9-2.7-1.3-4.6-1.3c-2.4,0-4.3,0.8-5.7,2.4c-1.4,1.6-2.2,4-2.2,6.9c0,3,0.7,5.3,2.2,6.9
			c1.5,1.6,3.4,2.4,5.7,2.4c1.8,0,3.3-0.4,4.5-1.3c1.2-0.9,2-2.1,2.5-3.6h4.4c-0.7,2.5-2,4.6-4,6.1s-4.5,2.3-7.5,2.3
			c-2.4,0-4.5-0.5-6.3-1.6c-1.8-1.1-3.3-2.6-4.3-4.5c-1-1.9-1.5-4.2-1.5-6.8C207.8,42.9,208.3,40.6,209.4,38.7z"/>
		<path class="st1" d="M241.4,56.7c-1.9-1.1-3.4-2.6-4.4-4.5c-1.1-2-1.6-4.2-1.6-6.8c0-2.5,0.6-4.8,1.7-6.7c1.1-2,2.6-3.4,4.5-4.5
			c1.9-1,4-1.6,6.4-1.6s4.5,0.5,6.4,1.6c1.9,1,3.4,2.5,4.5,4.5s1.7,4.2,1.7,6.8s-0.6,4.8-1.7,6.8s-2.7,3.5-4.6,4.5
			c-1.9,1.1-4.1,1.6-6.4,1.6C245.4,58.3,243.3,57.8,241.4,56.7z M251.9,53.7c1.3-0.7,2.4-1.7,3.2-3.1c0.8-1.4,1.2-3.1,1.2-5.1
			s-0.4-3.7-1.2-5.1c-0.8-1.4-1.8-2.4-3.1-3.1c-1.3-0.7-2.6-1-4.1-1s-2.9,0.3-4.2,1c-1.3,0.7-2.3,1.7-3,3.1
			c-0.8,1.4-1.1,3.1-1.1,5.1s0.4,3.7,1.1,5.1c0.7,1.4,1.7,2.4,3,3.1c1.2,0.7,2.6,1,4.1,1C249.2,54.7,250.6,54.4,251.9,53.7z"/>
		<path class="st1" d="M273.2,33.8c1.3-0.8,3-1.2,4.9-1.2v4.3H277c-4.6,0-6.9,2.5-6.9,7.5v13.5H266V33.1h4.1v4
			C270.8,35.7,271.8,34.6,273.2,33.8z"/>
		<path class="st1" d="M305.4,47h-19.9c0.2,2.4,1,4.4,2.5,5.7c1.5,1.4,3.4,2.1,5.6,2.1c1.8,0,3.3-0.4,4.5-1.2c1.2-0.8,2-1.9,2.5-3.3
			h4.4c-0.7,2.4-2,4.3-4,5.8s-4.5,2.2-7.4,2.2c-2.4,0-4.5-0.5-6.3-1.6c-1.9-1.1-3.3-2.6-4.4-4.5c-1.1-2-1.6-4.2-1.6-6.8
			c0-2.6,0.5-4.8,1.5-6.8c1-1.9,2.5-3.4,4.3-4.5c1.9-1,4-1.6,6.4-1.6s4.4,0.5,6.3,1.5c1.8,1,3.2,2.4,4.2,4.2s1.5,3.8,1.5,6.1
			C305.5,45.3,305.5,46.2,305.4,47z M300.2,39.6c-0.7-1.1-1.6-2-2.8-2.6c-1.2-0.6-2.5-0.9-4-0.9c-2.1,0-3.9,0.7-5.3,2
			c-1.5,1.3-2.3,3.2-2.5,5.5h15.7C301.3,42.1,300.9,40.8,300.2,39.6z"/>
	</g>
</g>
</svg>
